<svg width="96" height="64" viewBox="0 0 96 64" fill="none" xmlns="http://www.w3.org/2000/svg">
<path opacity="0.47" d="M84.2355 24.3181C87.7897 25.5028 90.6331 27.6354 92.7656 30.7157C94.8982 33.5591 95.9645 36.7579 95.9645 40.3122C96.2014 43.8664 95.2536 47.4206 93.1211 50.9749C91.2255 54.2922 88.1451 57.1356 83.88 59.505C77.0085 63.0593 70.9663 64.0071 65.7534 62.3484C60.5405 60.4528 56.8678 57.6095 54.7353 53.8183C53.5505 51.9227 52.6027 49.3162 51.8919 45.9989C51.418 42.6817 51.181 39.2459 51.181 35.6916C51.418 31.9005 51.8919 28.2277 52.6027 24.6735C53.3136 21.1193 54.3799 18.1574 55.8016 15.7879C56.9863 14.1293 58.408 12.3521 60.0666 10.4566C61.4883 8.79791 63.147 7.13926 65.0426 5.48062C67.1751 3.82197 69.5446 2.2818 72.1511 0.860107L84.5909 1.57096C82.9323 3.46655 81.3921 5.24367 79.9704 6.90231C78.7856 8.32401 77.7194 9.62723 76.7716 10.812C75.8238 11.9967 74.876 13.063 73.9282 14.0108C72.2695 15.6694 70.9663 17.3281 70.0185 18.9867C69.0707 20.4084 68.2414 21.9486 67.5305 23.6072C67.0566 25.2659 67.0566 26.9245 67.5305 28.5832C70.6109 25.2659 74.1651 23.6072 78.1933 23.6072C80.0889 23.6072 82.1029 23.8442 84.2355 24.3181ZM35.187 26.0952C38.5043 27.9908 40.8737 30.5972 42.2954 33.9145C43.9541 36.9949 44.5465 40.3122 44.0726 43.8664C43.5987 47.4206 42.0585 50.7379 39.4521 53.8183C37.0826 56.8986 33.5283 59.2681 28.7893 60.9267C21.4439 63.2962 15.4017 63.1778 10.6627 60.5713C5.92373 57.7279 2.72492 54.2922 1.06627 50.264C0.355424 48.1315 0 45.4066 0 42.0893C0 38.772 0.355424 35.3362 1.06627 31.782C1.77712 28.2277 2.72492 24.792 3.90966 21.4747C5.09441 18.1574 6.63458 15.4325 8.53017 13.2999C9.95187 11.6413 11.6105 10.1011 13.5061 8.67943C15.1648 7.49469 17.0603 6.19147 19.1929 4.76977C21.5624 3.34807 24.1688 2.04485 27.0122 0.860107L39.4521 4.05892C37.5565 5.71757 35.7793 7.13926 34.1207 8.32401C32.699 9.50875 31.3958 10.575 30.211 11.5228C29.0263 12.4706 27.8415 13.4184 26.6568 14.3662C24.9981 15.7879 23.5765 17.2096 22.3917 18.6313C21.207 19.816 20.1407 21.2377 19.1929 22.8964C18.2451 24.3181 17.8897 25.8583 18.1266 27.5169C20.0222 26.0952 21.9178 25.2659 23.8134 25.0289C25.9459 24.555 27.8415 24.4366 29.5002 24.6735C31.3958 24.9105 33.2914 25.3844 35.187 26.0952Z" fill="#F3F1FF"/>
</svg>
